<?xml version="1.0" encoding="UTF-8" standalone="no"?>
<svg
   xmlns:dc="http://purl.org/dc/elements/1.1/"
   xmlns:cc="http://creativecommons.org/ns#"
   xmlns:rdf="http://www.w3.org/1999/02/22-rdf-syntax-ns#"
   xmlns:svg="http://www.w3.org/2000/svg"
   xmlns="http://www.w3.org/2000/svg"
   viewBox="0 0 268 187.84"
   height="187.84"
   width="268"
   xml:space="preserve"
   id="svg2"
   version="1.1"><metadata
     id="metadata8"><rdf:RDF><cc:Work
         rdf:about=""><dc:format>image/svg+xml</dc:format><dc:type
           rdf:resource="http://purl.org/dc/dcmitype/StillImage" /></cc:Work></rdf:RDF></metadata><defs
     id="defs6" /><g
     transform="matrix(1.3333333,0,0,-1.3333333,0,187.84)"
     id="g10"><g
       transform="scale(0.1)"
       id="g12"><path
         id="path14"
         style="fill:#ffffff;fill-opacity:1;fill-rule:nonzero;stroke:none"
         d="M 2005,5 H 5 V 1403.78 H 2005 V 5" /><path
         id="path16"
         style="fill:none;stroke:#ffffff;stroke-width:10;stroke-linecap:butt;stroke-linejoin:miter;stroke-miterlimit:4;stroke-dasharray:none;stroke-opacity:1"
         d="M 2005,5 H 5 v 1398.78 h 2000 z" /><path
         id="path18"
         style="fill:#27657f;fill-opacity:1;fill-rule:nonzero;stroke:none"
         d="m 1032.39,671.891 c 91.72,0 165.06,163.632 165.06,232.828 0,62.953 -36.65,94.418 -103.94,88.168 L 971.285,697.027 c 12.195,-12.629 36.685,-25.136 61.105,-25.136 z M 965.168,495.629 H 769.566 l 6.102,18.859 c 48.875,6.328 54.992,6.328 67.184,31.465 l 177.338,421.719 c -36.71,-18.859 -73.377,-50.324 -97.807,-81.797 l -12.231,12.563 c 18.332,18.91 55.016,62.929 122.238,94.449 30.59,18.873 67.23,25.143 97.83,25.143 85.6,-6.27 128.4,-56.663 128.4,-125.87 0,-144.734 -140.62,-232.867 -214.02,-232.867 -24.41,0 -67.202,6.297 -79.432,25.105 -6.105,-25.105 -61.109,-138.445 -61.109,-150.976 0,-18.934 42.754,-18.934 67.226,-18.934 l -6.117,-18.859 v 0" /><path
         id="path20"
         style="fill:#27657f;fill-opacity:1;fill-rule:nonzero;stroke:none"
         d="m 1527.57,973.977 c 0,12.628 -6.16,25.16 -24.44,25.16 -12.29,0 -30.58,-12.532 -42.84,-25.16 -36.65,-31.442 -79.48,-107.028 -97.81,-151.059 55.03,18.883 165.09,94.43 165.09,151.059 z m -24.44,-207.688 c -30.58,-50.351 -85.62,-106.996 -152.82,-106.996 -48.91,0 -73.42,31.465 -73.42,75.531 0,88.094 128.42,276.936 232.33,276.936 30.55,0 61.09,-12.623 61.09,-44.088 0,-75.512 -158.9,-138.43 -213.92,-169.942 -6.08,-12.582 -18.33,-62.906 -18.33,-75.511 0,-18.883 6.09,-37.821 30.54,-37.821 48.91,0 97.86,56.731 122.24,88.172 l 12.29,-6.281 v 0" /><path
         id="path22"
         style="fill:#27657f;fill-opacity:1;fill-rule:nonzero;stroke:none"
         d="m 1558.04,665.59 c 18.32,44.07 134.47,270.617 134.47,295.777 0,6.305 0,18.848 -6.07,18.848 -18.34,0 -61.16,-69.188 -91.67,-94.34 l -12.27,6.285 c 24.45,31.485 85.6,119.6 140.59,119.6 18.35,0 24.5,-18.873 24.5,-31.545 0,-31.402 -36.65,-100.645 -55.08,-132.11 h 6.13 c 30.57,50.333 122.28,163.655 189.55,163.655 24.45,0 42.81,-6.32 42.81,-31.545 0,-50.289 -122.27,-257.996 -122.27,-276.879 0,0 0,-6.309 6.08,-6.309 18.37,0 73.38,62.957 79.47,75.543 l 12.22,-12.586 c -18.31,-31.488 -97.77,-100.691 -140.57,-100.691 -12.24,0 -24.49,12.598 -24.49,25.105 0,31.54 128.4,239.247 128.4,276.969 0,6.305 -6.09,18.848 -12.23,18.848 -79.48,0 -213.97,-239.086 -238.39,-314.625 h -61.18 v 0" /><path
         id="path24"
         style="fill:#2b7f68;fill-opacity:1;fill-rule:nonzero;stroke:none"
         d="m 715.758,1197.02 c -61.145,25.17 -116.149,12.61 -152.848,-31.49 18.313,12.59 55.024,50.36 122.235,25.18 67.277,-25.18 79.535,-106.99 73.429,-151.02 C 746.34,863.422 617.934,529.82 416.199,517.203 300.063,504.645 238.953,586.508 232.852,605.328 h -6.18 c 30.594,-75.508 110.09,-119.59 201.73,-119.59 244.536,-6.23 427.993,264.403 415.743,490.953 -6.137,132.219 -73.379,195.159 -128.387,220.329 v 0" /><path
         id="path26"
         style="fill:#2b7f68;fill-opacity:1;fill-rule:nonzero;stroke:none"
         d="m 293.953,580.133 c 85.527,-31.387 134.449,6.375 146.735,18.965 -91.719,-44.102 -177.313,6.23 -183.422,125.882 -6.118,163.618 152.847,547.52 354.531,547.52 73.348,0 122.258,-25.12 165.055,-69.24 -18.278,37.81 -85.524,94.42 -183.336,94.42 -238.442,0 -421.832,-239.14 -415.719,-490.907 6.133,-138.418 61.156,-201.445 116.156,-226.64 v 0" /><g
         transform="scale(10)"
         id="g28"><text
           id="text32"
           style="font-variant:normal;font-weight:bold;font-size:21.27000046px;font-family:Arial;-inkscape-font-specification:Arial-BoldMT;writing-mode:lr-tb;fill:#2b7f68;fill-opacity:1;fill-rule:nonzero;stroke:none"
           transform="matrix(1,0,0,-1,107.546,43.4453)"><tspan
             id="tspan30"
             y="0"
             x="0 15.360394 27.189993 35.467331 42.550243 48.459908 55.54282 61.452484 73.281586">Certified</tspan></text>
</g><g
         transform="scale(10)"
         id="g34"><text
           id="text38"
           style="font-variant:normal;font-weight:bold;font-size:13.08790016px;font-family:Arial;-inkscape-font-specification:Arial-BoldMT;writing-mode:lr-tb;fill:#27657f;fill-opacity:1;fill-rule:nonzero;stroke:none"
           transform="matrix(1,0,0,-1,89.6461,110.13)"><tspan
             id="tspan36"
             y="0"
             x="0 7.996707 15.993414 23.270287 26.908722 37.09111 45.087814 52.364689 60.361393 63.999832 74.168755 79.259949 87.256653 95.253357">The Open Group</tspan></text>
<text
           id="text42"
           style="font-variant:normal;font-weight:normal;font-size:10px;font-family:ArialMT;-inkscape-font-specification:ArialMT;writing-mode:lr-tb;fill:#27657f;fill-opacity:1;fill-rule:nonzero;stroke:none"
           transform="matrix(1,0,0,-1,12.8438,110.13)"><tspan
             id="tspan40"
             y="0"
             x="0">®</tspan></text>
</g><g
         transform="scale(10)"
         id="g44"><text
           id="text48"
           style="font-variant:normal;font-weight:bold;font-size:12px;font-family:Arial;-inkscape-font-specification:Arial-BoldMT;writing-mode:lr-tb;fill:#2b7f68;fill-opacity:1;fill-rule:nonzero;stroke:none"
           transform="matrix(1,0,0,-1,10.6227,19.4539)"><tspan
             id="tspan46"
             y="0"
             x="0 7.1132808 16.44726 25.78124 34.447262">TOGAF</tspan></text>
<text
           id="text52"
           style="font-variant:normal;font-weight:bold;font-size:6.99599981px;font-family:Arial;-inkscape-font-specification:Arial-BoldMT;writing-mode:lr-tb;fill:#2b7f68;fill-opacity:1;fill-rule:nonzero;stroke:none"
           transform="matrix(1,0,0,-1,52.4,23.44999)"><tspan
             id="tspan50"
             y="0"
             x="0">®</tspan></text>
<text
           id="text58"
           style="font-variant:normal;font-weight:bold;font-size:12px;font-family:Arial;-inkscape-font-specification:Arial-BoldMT;writing-mode:lr-tb;fill:#2b7f68;fill-opacity:1;fill-rule:nonzero;stroke:none"
           transform="matrix(1,0,0,-1,60.89069,19.4539)"><tspan
             id="tspan54"
             y="0"
             x="0 8.0039997 15.336 19.332001 26.004 30.672001 38.004002 42.672001 46.007999 52.68 59.352001 62.242516 70.906517 75.574516 82.246513 89.578514 92.91452 96.910515 103.58252 110.25452 114.25052 121.58252 126.25052">Enterprise Architecture</tspan><tspan
             id="tspan56"
             y="14"
             x="66.244499 74.248497 78.916496 85.588501 92.260498 96.2565 99.592499 103.5885 106.9245 114.2565 121.5885 128.2605">Practitioner</tspan></text>
</g><path
         id="path60"
         style="fill:#2b7f68;fill-opacity:1;fill-rule:nonzero;stroke:none"
         d="M 95.918,344.359 H 1936.42" /><path
         id="path62"
         style="fill:none;stroke:#2b7f68;stroke-width:10;stroke-linecap:butt;stroke-linejoin:miter;stroke-miterlimit:4;stroke-dasharray:none;stroke-opacity:1"
         d="M 95.918,344.359 H 1936.42" /><path
         id="path64"
         style="fill:#27657f;fill-opacity:1;fill-rule:nonzero;stroke:none"
         d="m 381.371,1013.41 100.199,65.44 -2.039,-202.444 c 100.203,139.044 141.106,188.124 261.758,290.374 82.371,69.81 157.461,108.39 271.981,165.65 C 892.617,1252.67 826.348,1203.22 729.02,1097.25 580.504,935.566 522.477,817.086 442.719,612.602 c -15.114,77.871 -22.77,121.984 -34.766,200.39 -11.918,77.946 -17.781,122.071 -26.582,200.418 v 0" /><path
         id="path66"
         style="fill:none;stroke:#27657f;stroke-width:10;stroke-linecap:butt;stroke-linejoin:miter;stroke-miterlimit:4;stroke-dasharray:none;stroke-opacity:1"
         d="m 381.371,1013.41 100.199,65.44 -2.039,-202.444 c 100.203,139.044 141.106,188.124 261.758,290.374 82.371,69.81 157.461,108.39 271.981,165.65 C 892.617,1252.67 826.348,1203.22 729.02,1097.25 580.504,935.566 522.477,817.086 442.719,612.602 c -15.114,77.871 -22.77,121.984 -34.766,200.39 -11.918,77.946 -17.781,122.071 -26.582,200.418 z" /></g></g></svg>